<svg width="40" height="40" viewBox="0 0 40 40" fill="none" xmlns="http://www.w3.org/2000/svg">
<circle cx="20" cy="20" r="20" fill="#DCF5FF"/>
<g clip-path="url(#clip0_428_9803)">
<path d="M21.1041 18.896L14.5339 25.4662M15.243 20.698L12.0248 19.9378C11.6707 19.8542 11.5462 19.4146 11.8027 19.1572L14.362 16.5979C14.5339 16.426 14.7672 16.3275 15.0116 16.3256L17.897 16.3005M21.5315 12.9987C23.6791 14.4633 25.5368 16.321 27.0014 18.4686M19.3012 24.7571L20.0614 27.9753C20.145 28.3294 20.5846 28.4539 20.842 28.1974L23.4013 25.6381C23.5732 25.4662 23.6717 25.2329 23.6736 24.9885L23.6987 22.1031M27.5525 16.9585L28.3033 13.3453C28.5078 12.3621 27.638 11.4923 26.6548 11.6968L23.0416 12.4476C21.9776 12.6688 21.0018 13.1957 20.2342 13.9642L17.2698 16.9278C16.1388 18.0587 15.4028 19.5252 15.1705 21.1078L15.1603 21.1756C15.0134 22.1858 15.3517 23.2052 16.0728 23.9273C16.794 24.6484 17.8143 24.9867 18.8245 24.8389L18.8923 24.8287C20.4749 24.5973 21.9414 23.8604 23.0723 22.7294L26.0359 19.7659C26.8044 18.9983 27.3313 18.0225 27.5525 16.9585Z" stroke="#09678C" stroke-width="1.5" stroke-linecap="round" stroke-linejoin="round"/>
</g>
<defs>
<clipPath id="clip0_428_9803">
<rect width="20" height="20" fill="white" transform="translate(10 10)"/>
</clipPath>
</defs>
</svg>
